<mxfile host="www.draw.io" modified="2020-02-10T16:32:07.979Z" agent="Mozilla/5.0 (Macintosh; Intel Mac OS X 10_13_6) AppleWebKit/537.36 (KHTML, like Gecko) Chrome/79.0.3945.130 Safari/537.36" etag="5t-6FhJ5LFYo1Wew0a-B" version="12.6.7" type="github">
  <diagram id="NpwRTwfMeagAYMnv_xYB" name="Page-1">
    <mxGraphModel dx="839" dy="540" grid="1" gridSize="10" guides="1" tooltips="1" connect="1" arrows="1" fold="1" page="1" pageScale="1" pageWidth="827" pageHeight="1169" math="0" shadow="0">
      <root>
        <mxCell id="0"/>
        <mxCell id="1" parent="0"/>
        <mxCell id="wdX2hb1Hl6OIeJRLtqXz-1" value="" style="shape=image;verticalLabelPosition=bottom;labelBackgroundColor=#ffffff;verticalAlign=top;aspect=fixed;imageAspect=0;image=data:image/png,iVBORw0KGgoAAAANSUhEUgAAAEMAAAA9CAYAAAD24tTCAAALeUlEQVR4Ae1aCVBV1xkmbQPyHm8XENlU3EWQxbo9QcWlduqCGq2CCwgaNdqoDTw3TCKSqgNRKgoqWkCDjqhxSSyLRqpWRxmdDovPB5EIjk3juAQRcHt/5/vl3gEDkQeo4HBnznt3Oefc///O9y/nnGtm1na0IdCGwLuMQEVFhb1er1+dm5tLP/7445J3Wdd6dZNIJIsSExOv+w71eebk4EhKhZJ04Tqqt8G79qCysnJEwvbtMRs3bqTuXbuRVCJlEBRyBbVXa0hiKTE+Kn/0n3dNb1GfwsJCix9++CE4bmscde3iQkq5gjQqNSsPNth1sKNRo0YxKDKpFYWEhJwTG78rJw8rKibrwnWnpkyeQjADjL5aqSIoLJVIaNrUaZSZkUH37t0jHPZ29vx8zKjRlJOTo2iVOBDRe4LgBoNhZGRk5EfrPv+cAYAZAAABiCGDBtP6yEi6d/8FAIxC9c/aiAiuB6ZkZ2ePF/psdf8VFRX08V8+LnPp3EU0AZiCzEpG7TUaWr58Of3000/07NmzmvrXOi8vLye1SsXmEhMd0/IdaU0WfF9cvH3yhMnbZwUGktxKZoTiKqWSrCRWpFFraG5QMJ389luqrKyspXR9F0ajkUb6jWQmOTs6UVBQUO8WzYqxY8fKy8rKaOGHC9jzAwAwAKZgY21N7m7uFLtlS336vvJ+dHQ0gwlwP/300+gWA0ZNFuj1+tt/GDMmv5+bO9MYygvOsJNzJ9q4YQPdKi2lp0+fvlLhX6sAU4GDBcCR6yLfrqkIAGg0mln+/v42J0+eJEQD8/fNjQor+YvwZyWjTk7OFDwniE6cOPFArVZf+zUFTX0WMCOAwy7yEJlM9nYcKRG9D1oWFRXRiGHDxTwAyRBYYK1pT96eXnRg/35T9TOp/oV/XxBZl5CQcPONmIrAgo4dO35+8ODBQ4sWLSRvL2+ykkiNSIYUMgVJLSXk1teN4uLiyGC4bpJSdVXOycmhpUuX0uPHj+t6zPfgkxCVIEN/7/5VmLu8bkC85wcHu2ekp5OnhyecoegLkBOAojMDAuns2bP1Ct3QBzdu3CCE3nPnzsHcSNJOgjyizuYA6br+Onl5eDI7HO0d6LusrNmvBQwLS4voAwcO3Pfs52G0s+3AL4QZCEnRMB9fyj6T3eBwWKdG1TcBwoD+v2eQkTc8f/6cunXtSgqZnGbPml2rKUCIWr+eevfsxeYJmVgumZyqKquaz5FqNJo5a9euXYcZYY9u3XlyBB8AoeC5h2q1HA4LCwtrCdiYi8zMLPpw3nzauWMHNwfg/I4hWr5O/2c66a/r+fzBgweUkpJCUyZNJmu1huvBNFAfpjovNJQOHzx8D6wQTLqpDLGKiY4mS4t2YmYIxNkMAgPJYDA0Rud623h6eDDLnOwduM6Gv20gRIeC/AK+RgJWVFhEIXPnklqh4gxVmLThv28fV1qyZElpeXk5g9BU5Wu1JyLZF1FfkIW5hUg/W2sbSohPqFehhjyoqqqqM7VGvtHO3MI448/T6e7du2JXpaWltGTxEnJz7cumKeQpmLvARAEEolVKSsq8Wgo094VSKVu2Zs2aM37DR3DWCEHgMPu6utKRw4frVErUosaJSqWKO5V1iuYGB7MCmI5fu1Y7xbC1tV0N+uO4desW7du7j0b5jWRmIltlM7CSkUNHe5o2dSqlpaXR90VFzBDIlZWZ1Xz+4VVAHjt2jNcP8GKYC/67OHeizMxMwtzg5QP3bpXeogXz57MCwiiiLUYTPkGvf+EDhLbIE/xG+HH/UF6oi3f17eNqTEpKEt+FjBWA2bS35nrubm4kl8vf3HpGSUnJtOSk5Kce7h6sEISEM/Ud6kOH0tJYp5KbNwlT6qFDtMwCgADFQGvQef68ecwuKApFYHahISHUu1cv0RGiDRjYp1dv+jLmS/gNo7W1dRFecCB1P02ZNIkQOoX5DRynZz8P0mq1Xq8a1GZ/npqaGgqBBYZgpKWWUnauSL0FIbEyBQaMHOFHe/bsEQhA/9izhwFCezYBuZKZhvpdXVxoxvTp9K/qfAJT9+t6Pa3Q6Qg+CyBhEACwUq4krHOM++O4C3fu3LnW7Io2pMO0g2lieA37JIxZIoADBcGWLp06065du+jhw4ecJ4hIVJ+cP3+eNNXMQtvhvsPozJkzSLLY5pBsRayJYIDRJwBHAQtUcoVx2dKlPLkzMzP7bUNkfm11EOOhAAoSonv371NgQABfY6RTv/rqZd3rvAYg8fEJdKO4mJ/Dge5PTSX7jvZHhVxGXQ2Ak6MjLf5oMc0MmBl1+/btKEG55sojhP5M/oeyEBZ+IL/gRR6AvQuMGgDC0l1DD4Ta/Lx8CpwRwH2iX4EFYISdjS1FrI7474PyB34mC/omGsTGxn4MoWHjoSGhot79vfuzIh7u/cR79Z0YCg2ccbr27sMACn4APsHZyZkCps9g3wBgioqK3lyUMBVAGxub0cN8fdmJAZStf99Kj6sec5iF8FAoPy/vFzgUFxfTnt27yUerJYmlJTOBfYxcQViumzVzJh39+ii3w5zD3q4jAzV71izj6NGjbUyV843Vh69wdHBgJsCzI2ogOROUmzh+ggjGd6dPk3aIlmw07Xm0UQdMAHAAE47y5VwF/SMKwewwBTA3N5/8xpQz5UWC08rNzf2fr49Prd0tKMi2btuBgoOCqGf3Hi/CJ69zyHkaPmjgINq3dy91c+nKoCAnqevw6OfB7MP6qEqlmmGKjG+lrkQi8dLpdDnjx40n7eAhNHTwEDGHwOgLvgATqalTPniSlZ6e4+TkxOsMgQGBT8AMgIfIguPnn3+my5cv08QJE7kfOOWdO3Y2KdXOyMjw1ul0kFMsycnJ3kT0m9cCWnl5uW16erqNl5eXBCtcUMJKamWc+sFUnnm6ublJiUhd8+UGgyHf/HfvGwUmDRwwgFw6dxajCYCc5O9PZWVl7Wu2M+U8Ozs7AOyE/8G8RijIg27evPnUlL4aVTctLW2Tj9Zn3eXLl8Ule8G0Xu5w1cpVpxXYMFJrmAnwPwJbELovXryY+HIbU64XL14citwHUwH0iz6Fd126dKlJjDNFjgbX3Ra3TQQA/mNmYCA7TrDr6tWrKQ3uqI6KUVFRywAGgFi4YAHFxMSIpot11TqavN1buxN3s7DYZEYanpyU3CQwwMLY2FiLlStWXBw0YCCbHcL98ePH6cmTJ8xAmGCLBCNxVyKDgVCNFW5M5BBSpRKJ8cqVKwdNHSoicohaH0WSdpakUb6IbgDjyJEj3D9MscWDAWZgZyw5KYnBsOvQoVE0jt8ez+AizNva2DIzsHXRqsCAY8OOm72dHTs5tVJl7NWjJyFlb2hBCNeo1Byh+vTuw0sB8D1wnK0ODNC3qQWgog8sCSBngQPFekurAgOU3rJ5M23ftq1RJSE+nlboVrCJAYxrBdcI4bNVgoE1izt37vBGFLYGTC2YLObm5bHyAKOgoKD1giHQG5FEKFgmaHBBwla9HImPX/Ly81s3GEiOEPoADAquTS2CzwkPC2d2tEozwYIvNozG/2kcA4JRxpc+q1euanBZs3oNDaxOtLABFv5JWOvyGUIGCgeKBeSEhAT+rAEjmpeXtw/ff5hSMjIyNqOtYHb4bzVJF1a1sGEMoZ0dncWNITdXV3J0dPQ2NQNF/eTk5Ah8IAMQ0K+QdGGJoMVmoMJs9q/LlhvxkQvsHcIi+bpw4cLdxgAhtFGpVF9v2rTpNvoFKIcOHaJHFY9aLhiC4GZmZu8hlG7ZsoW+OfENOTg4qImoyXsiYWFhc2EySM2xzurS2YXPAXiLnKgBEIEhAjgvXwv3Tf3/7LOoUHzxA0BqFqTnJSUljZr7mCpDi6kvlUrnxERHl/lPmFg2aaK/WHTh4RWlpaX2zQV6i1G4TZA2BNoQaEOgDYE2BNoQaEOgpSPwf25Vxx+vrP5xAAAAAElFTkSuQmCC;" vertex="1" parent="1">
          <mxGeometry x="180" y="113" width="67" height="61" as="geometry"/>
        </mxCell>
        <mxCell id="wdX2hb1Hl6OIeJRLtqXz-2" value="" style="image;html=1;labelBackgroundColor=#ffffff;image=img/lib/clip_art/networking/Switch_128x128.png" vertex="1" parent="1">
          <mxGeometry x="340" y="103" width="80" height="80" as="geometry"/>
        </mxCell>
        <mxCell id="wdX2hb1Hl6OIeJRLtqXz-3" value="" style="shape=image;html=1;verticalAlign=top;verticalLabelPosition=bottom;labelBackgroundColor=#ffffff;imageAspect=0;aspect=fixed;image=https://cdn2.iconfinder.com/data/icons/analytic-investment-and-balanced-scorecard/512/642_finger_fingerprint_recognition_scan_scanning-128.png" vertex="1" parent="1">
          <mxGeometry x="538.6" y="62" width="49" height="49" as="geometry"/>
        </mxCell>
        <mxCell id="wdX2hb1Hl6OIeJRLtqXz-18" value="" style="edgeStyle=orthogonalEdgeStyle;rounded=0;orthogonalLoop=1;jettySize=auto;html=1;" edge="1" parent="1" source="wdX2hb1Hl6OIeJRLtqXz-4">
          <mxGeometry relative="1" as="geometry">
            <mxPoint x="570" y="444" as="targetPoint"/>
          </mxGeometry>
        </mxCell>
        <mxCell id="wdX2hb1Hl6OIeJRLtqXz-4" value="report" style="swimlane;fontStyle=0;childLayout=stackLayout;horizontal=1;startSize=26;fillColor=none;horizontalStack=0;resizeParent=1;resizeParentMax=0;resizeLast=0;collapsible=1;marginBottom=0;" vertex="1" parent="1">
          <mxGeometry x="500" y="260" width="140" height="104" as="geometry"/>
        </mxCell>
        <mxCell id="wdX2hb1Hl6OIeJRLtqXz-5" value="people1 (timestamp)&#xa;" style="text;strokeColor=none;fillColor=none;align=left;verticalAlign=top;spacingLeft=4;spacingRight=4;overflow=hidden;rotatable=0;points=[[0,0.5],[1,0.5]];portConstraint=eastwest;" vertex="1" parent="wdX2hb1Hl6OIeJRLtqXz-4">
          <mxGeometry y="26" width="140" height="26" as="geometry"/>
        </mxCell>
        <mxCell id="wdX2hb1Hl6OIeJRLtqXz-6" value="people2 (timestmap)" style="text;strokeColor=none;fillColor=none;align=left;verticalAlign=top;spacingLeft=4;spacingRight=4;overflow=hidden;rotatable=0;points=[[0,0.5],[1,0.5]];portConstraint=eastwest;" vertex="1" parent="wdX2hb1Hl6OIeJRLtqXz-4">
          <mxGeometry y="52" width="140" height="26" as="geometry"/>
        </mxCell>
        <mxCell id="wdX2hb1Hl6OIeJRLtqXz-7" value="people3 (timestamp)" style="text;strokeColor=none;fillColor=none;align=left;verticalAlign=top;spacingLeft=4;spacingRight=4;overflow=hidden;rotatable=0;points=[[0,0.5],[1,0.5]];portConstraint=eastwest;" vertex="1" parent="wdX2hb1Hl6OIeJRLtqXz-4">
          <mxGeometry y="78" width="140" height="26" as="geometry"/>
        </mxCell>
        <mxCell id="wdX2hb1Hl6OIeJRLtqXz-8" value="adminstrator" style="shadow=0;dashed=0;html=1;strokeColor=none;fillColor=#4495D1;labelPosition=center;verticalLabelPosition=bottom;verticalAlign=top;align=center;outlineConnect=0;shape=mxgraph.veeam.company_administrator;" vertex="1" parent="1">
          <mxGeometry x="549.2" y="449" width="44.4" height="48.8" as="geometry"/>
        </mxCell>
        <mxCell id="wdX2hb1Hl6OIeJRLtqXz-13" value="" style="edgeStyle=orthogonalEdgeStyle;rounded=0;orthogonalLoop=1;jettySize=auto;html=1;entryX=0.5;entryY=0;entryDx=0;entryDy=0;" edge="1" parent="1" source="wdX2hb1Hl6OIeJRLtqXz-9" target="wdX2hb1Hl6OIeJRLtqXz-4">
          <mxGeometry relative="1" as="geometry">
            <mxPoint x="590" y="364" as="targetPoint"/>
          </mxGeometry>
        </mxCell>
        <mxCell id="wdX2hb1Hl6OIeJRLtqXz-9" value="" style="image;html=1;labelBackgroundColor=#ffffff;image=img/lib/clip_art/computers/Server_Tower_128x128.png" vertex="1" parent="1">
          <mxGeometry x="530" y="101" width="80" height="80" as="geometry"/>
        </mxCell>
        <mxCell id="wdX2hb1Hl6OIeJRLtqXz-10" value="" style="endArrow=classic;html=1;entryX=0;entryY=0.5;entryDx=0;entryDy=0;exitX=1;exitY=0.5;exitDx=0;exitDy=0;" edge="1" parent="1" source="wdX2hb1Hl6OIeJRLtqXz-1" target="wdX2hb1Hl6OIeJRLtqXz-2">
          <mxGeometry width="50" height="50" relative="1" as="geometry">
            <mxPoint x="240" y="140" as="sourcePoint"/>
            <mxPoint x="290" y="90" as="targetPoint"/>
          </mxGeometry>
        </mxCell>
        <mxCell id="wdX2hb1Hl6OIeJRLtqXz-11" value="" style="endArrow=classic;html=1;" edge="1" parent="1" target="wdX2hb1Hl6OIeJRLtqXz-9">
          <mxGeometry width="50" height="50" relative="1" as="geometry">
            <mxPoint x="420" y="140" as="sourcePoint"/>
            <mxPoint x="470" y="90" as="targetPoint"/>
          </mxGeometry>
        </mxCell>
      </root>
    </mxGraphModel>
  </diagram>
</mxfile>
